<?xml version="1.0" standalone="no"?>
<!DOCTYPE svg PUBLIC "-//W3C//DTD SVG 20010904//EN"
 "http://www.w3.org/TR/2001/REC-SVG-20010904/DTD/svg10.dtd">
<svg version="1.0" xmlns="http://www.w3.org/2000/svg"
 width="572.000000pt" height="572.000000pt" viewBox="0 0 572.000000 572.000000"
 preserveAspectRatio="xMidYMid meet">
<metadata>
Created by potrace 1.11, written by Peter Selinger 2001-2013
</metadata>
<g transform="translate(0.000000,572.000000) scale(0.100000,-0.100000)"
fill="#000000" stroke="none">
<path d="M2854 5687 c-17 -18 -97 -95 -178 -172 -670 -636 -1310 -1272 -1617
-1606 -138 -149 -147 -159 -192 -213 -23 -27 -49 -56 -58 -65 -57 -59 -250
-318 -332 -446 -95 -148 -214 -416 -233 -525 -3 -14 -10 -43 -16 -65 -5 -22
-12 -50 -14 -62 -2 -13 -6 -35 -9 -50 -14 -72 -20 -161 -19 -308 0 -158 4
-209 23 -296 5 -24 9 -51 9 -59 1 -21 35 -143 60 -212 11 -31 17 -59 14 -62
-3 -3 0 -6 6 -6 7 0 12 -8 12 -18 0 -10 7 -28 16 -40 8 -12 13 -22 10 -22 -8
0 90 -187 138 -265 162 -259 385 -487 672 -687 28 -20 64 -43 80 -52 16 -9 43
-25 59 -36 17 -10 46 -27 65 -36 19 -10 47 -26 62 -36 16 -11 28 -16 28 -12 0
4 8 0 18 -8 14 -13 39 -26 62 -33 3 -1 32 -14 65 -29 58 -27 235 -96 258 -100
7 -2 25 -8 40 -14 16 -7 32 -12 37 -12 5 0 29 -7 52 -14 24 -8 57 -18 73 -21
39 -8 60 -13 60 -15 0 -1 7 -3 15 -5 168 -34 217 -43 270 -50 19 -3 49 -7 65
-10 88 -13 222 -19 405 -20 179 0 393 10 410 19 3 2 28 6 55 10 28 3 62 8 78
11 15 3 39 7 54 10 181 31 453 110 589 170 33 14 60 26 61 26 13 -1 189 84
268 129 95 53 130 74 135 81 3 3 16 12 30 19 38 20 238 171 304 231 80 72 204
201 258 269 47 57 148 197 148 204 0 2 20 37 45 78 25 42 45 80 45 87 0 6 4
11 10 11 5 0 9 3 8 8 -1 4 13 38 30 75 18 38 32 74 32 81 0 7 5 17 12 24 7 7
9 12 5 12 -4 0 -1 12 7 28 17 34 61 196 75 277 5 33 13 76 16 95 14 73 14 355
0 450 -34 241 -80 389 -185 605 -43 88 -161 281 -179 295 -4 3 -18 21 -31 40
-13 19 -29 40 -35 47 -5 6 -31 36 -58 66 -26 30 -95 103 -155 163 -59 60 -116
121 -127 136 -11 14 -36 43 -55 65 -19 21 -50 56 -69 78 -154 181 -482 525
-1084 1139 -638 648 -665 676 -669 675 -1 0 -17 -15 -34 -32z"/>
</g>
</svg>
